<svg xmlns="http://www.w3.org/2000/svg" viewBox="0 0 4729.796 3950.537" id="lessons"><linearGradient id="a" x2="1513.326" y1="2833.55" y2="2833.55" gradientUnits="userSpaceOnUse"><stop offset="0" stop-color="#e84d00"></stop><stop offset=".363" stop-color="#d43917"></stop><stop offset=".721" stop-color="#c62c27"></stop><stop offset="1" stop-color="#c1272d"></stop></linearGradient><path fill="url(#a)" d="M0 1716.563h1513.326v2233.974H0z"></path><path fill="#fff" d="M106.231 2833.55h1266.896v927.273H106.231z"></path><linearGradient id="b" x1="3216.47" x2="4729.796" y1="2830.272" y2="2830.272" gradientUnits="userSpaceOnUse"><stop offset="0" stop-color="#e84d00"></stop><stop offset=".363" stop-color="#d43917"></stop><stop offset=".721" stop-color="#c62c27"></stop><stop offset="1" stop-color="#c1272d"></stop></linearGradient><path fill="url(#b)" d="M3216.469 1713.285h1513.326v2233.974H3216.469z"></path><path fill="#fff" d="M3322.701 2830.272h1266.896v927.273H3322.701z"></path><linearGradient id="c" x1="694.739" x2="2208.065" y1="1722.563" y2="1722.563" gradientUnits="userSpaceOnUse"><stop offset="0" stop-color="#ffb600"></stop><stop offset="1" stop-color="#ff9100"></stop></linearGradient><path fill="url(#c)" d="M694.739 605.576h1513.326V2839.55H694.739z"></path><path fill="#fff" d="M800.97 1722.563h1266.896v927.273H800.97z"></path><linearGradient id="d" x1="2435.893" x2="3949.219" y1="1719.276" y2="1719.276" gradientUnits="userSpaceOnUse"><stop offset="0" stop-color="#ffb600"></stop><stop offset="1" stop-color="#ff9100"></stop></linearGradient><path fill="url(#d)" d="M2435.893 602.29h1513.326v2233.974H2435.893z"></path><path fill="#fff" d="M2542.124 1719.276H3809.02v927.273H2542.124z"></path><linearGradient id="e" x1="1562.943" x2="3076.269" y1="1116.987" y2="1116.987" gradientUnits="userSpaceOnUse"><stop offset="0" stop-color="#0062ff"></stop><stop offset=".36" stop-color="#005cef"></stop><stop offset="1" stop-color="#004ec9"></stop></linearGradient><path fill="url(#e)" d="M1562.943 0h1513.326v2233.974H1562.943z"></path><path fill="#fff" d="M1884.902 234.567h108.006l215.157 559.427h-110.668l-43.767-115.232h-228.277l-45.51 115.232h-110.668l215.727-559.427zm54.669 148.318-75.047 192.053h149.65l-74.603-192.053zm325.857 348.042c0-42.024 28.808-72.385 70.071-72.385s69.279 29.569 69.279 72.385c0 41.263-28.016 71.624-70.071 71.624-40.471-.001-69.279-30.361-69.279-71.624zm521.46-350.704h103.823v413.771h-103.823v-43.735c-20.251 19.269-40.597 33.15-60.975 41.643s-42.467 12.74-66.268 12.74c-53.433 0-99.671-20.727-138.652-62.18-39.013-41.453-58.503-92.984-58.503-154.594 0-63.891 18.857-116.246 56.602-157.065s83.572-61.229 137.511-61.229c24.815 0 48.109 4.69 69.881 14.071s41.897 23.452 60.405 42.214v-45.636zm-109.148 85.188c-32.072 0-58.757 11.346-79.959 34.037-21.234 22.691-31.85 51.785-31.85 87.28 0 35.749 10.807 65.159 32.389 88.23 21.614 23.072 48.204 34.608 79.801 34.608 32.611 0 59.644-11.346 81.1-34.037 21.487-22.691 32.231-52.419 32.231-89.181 0-36.002-10.744-65.159-32.231-87.47-21.456-22.311-48.616-33.467-81.481-33.467zM1669.175 1116.987h1266.896v927.273H1669.175z"></path><path fill="#282d35" d="M1764.603 1209.25h1076.235v101.799H1764.603zM1771.246 1413.622h1076.235v101.799H1771.246zM1773.881 1617.477h1076.235v101.799H1773.881zM1771.246 1821.849h1076.235v101.799H1771.246z"></path></svg>